<?xml version="1.0" encoding="UTF-8"?>
<svg xmlns="http://www.w3.org/2000/svg" width="24" height="24" version="1.1" viewBox="0 0 24 24">
  <defs>
    <style>
      .cls-1 {
        fill: #31241b;
      }
    </style>
  </defs>
  <!-- Generator: Adobe Illustrator 28.6.0, SVG Export Plug-In . SVG Version: 1.2.0 Build 709)  -->
  <g>
    <g id="Layer_1">
      <g>
        <path class="cls-1" d="M22.9417419,3.0286875h-2.1436768c-.4946899-1.5865479-1.960022-2.7494507-3.7071533-2.7494507s-3.2124023,1.1629028-3.7070923,2.7494507H1.0582581C.506012,3.0286875.0582581,3.4764414.0582581,4.0286875s.4477539,1,1,1h12.2316284c.3895874,1.7423706,1.9429932,3.0513306,3.8010254,3.0513306s3.411438-1.30896,3.8010254-3.0513306h2.0498047c.5522461,0,1-.4477539,1-1s-.4477539-1-1-1ZM17.0909119,6.2792368c-1.1582031,0-2.0996094-.9414062-2.0996094-2.0996094s.9414062-2.0996094,2.0996094-2.0996094,2.0996094.9414062,2.0996094,2.0996094-.9414062,2.0996094-2.0996094,2.0996094Z"/>
        <path class="cls-1" d="M22.9417419,18.6694326h-2.1436768c-.4946899-1.5865479-1.960022-2.7494507-3.7071533-2.7494507s-3.2124023,1.1629028-3.7070923,2.7494507H1.0582581c-.5522461,0-1,.4477539-1,1s.4477539,1,1,1h12.2316284c.3895874,1.7423706,1.9429932,3.0513306,3.8010254,3.0513306s3.411438-1.30896,3.8010254-3.0513306h2.0498047c.5522461,0,1-.4477539,1-1s-.4477539-1-1-1ZM17.0909119,21.919982c-1.1582031,0-2.0996094-.9414062-2.0996094-2.0996094s.9414062-2.0996094,2.0996094-2.0996094,2.0996094.9414062,2.0996094,2.0996094-.9414062,2.0996094-2.0996094,2.0996094Z"/>
        <path class="cls-1" d="M22.9417419,11.1066558h-12.2315063c-.3896484-1.7423096-1.9429932-3.0510864-3.8009644-3.0510864s-3.4113159,1.3087769-3.8009644,3.0510864H1.0582581c-.5522461,0-1,.4477539-1,1s.4477539,1,1,1h2.1438599c.4946289,1.586731,1.9598999,2.7496948,3.7071533,2.7496948s3.2125854-1.1629639,3.7072144-2.7496948h12.3252563c.5522461,0,1-.4477539,1-1s-.4477539-1-1-1ZM6.9092712,14.0555694c-1.1582031,0-2.0996094-.9414062-2.0996094-2.0996094s.9414062-2.0996094,2.0996094-2.0996094,2.0996094.9414062,2.0996094,2.0996094-.9414062,2.0996094-2.0996094,2.0996094Z"/>
      </g>
    </g>
  </g>
</svg>