<svg width="43" height="32" viewBox="0 0 43 32" fill="none" xmlns="http://www.w3.org/2000/svg">
<path d="M12.1041 2.12695C10.9296 3.33329 10.8486 3.33329 6.39361 3.33329C1.6551 3.33329 0.561605 3.61478 0.966605 4.70049C1.2501 5.38409 1.5336 5.4243 7.04161 5.34388C10.6056 5.30366 10.6056 5.30366 12.2256 6.71107C13.0761 7.51531 14.2101 8.15869 14.7366 8.15869C15.7491 8.15869 17.3691 7.19361 18.1791 6.06769C18.6651 5.38409 19.5561 5.34388 30.0456 5.34388C36.2421 5.38409 41.5476 5.26345 41.7501 5.14282C42.3576 4.78091 42.2361 3.85605 41.5071 3.57456C41.1426 3.45393 35.8776 3.33329 29.7216 3.33329H18.5841L17.4501 2.12695C16.5996 1.20208 15.9516 0.920596 14.8176 0.920596C13.7241 0.920596 13.0356 1.24229 12.1041 2.12695ZM15.8301 3.53435C16.6401 4.53964 16.1541 5.54493 14.8176 5.54493C13.9671 5.54493 13.5621 5.34388 13.4811 4.82113C13.3191 3.97668 14.0481 2.93118 14.8176 2.93118C15.1011 2.93118 15.5466 3.21266 15.8301 3.53435Z" fill="black"/>
<path d="M28.3851 13.7886L27.2511 14.9949L14.1696 15.0753C1.37161 15.196 1.04761 15.196 1.04761 16.0002C1.04761 16.8044 1.37161 16.8044 14.3316 16.9251C23.0796 16.9653 27.5751 17.1663 27.5751 17.4478C27.5751 18.3727 29.6001 19.8203 30.9366 19.8203C32.2731 19.8203 34.4601 18.3727 34.4601 17.4478C34.4601 17.2066 36.0396 17.0055 38.2266 16.9251C41.6286 16.8044 41.9526 16.724 41.9526 16.0002C41.9526 15.2764 41.6286 15.196 38.3481 15.0753C34.9866 14.9547 34.7031 14.8743 33.5691 13.7886C31.9086 12.1399 29.9241 12.1399 28.3851 13.7886ZM31.6656 14.9949C32.5971 15.5177 32.6781 16.724 31.7871 17.4478C30.5316 18.4933 28.9521 16.4425 30.0051 15.196C30.6126 14.4722 30.6531 14.4722 31.6656 14.9949Z" fill="black"/>
<path d="M11.5371 25.6105L10.0386 27.0582H5.62408C1.97908 27.0582 1.16908 27.1788 0.966583 27.7016C0.561583 28.7471 1.65508 29.0687 6.02908 29.0687C10.1601 29.0687 10.2411 29.0687 11.3751 30.2751C12.2256 31.2 12.8736 31.4814 14.0076 31.4814C15.1011 31.4814 15.7896 31.1598 16.7211 30.2751L17.9361 29.0687H29.5191C35.9181 29.0687 41.3856 28.9079 41.7096 28.7068C42.0336 28.5058 42.1551 28.0635 42.0336 27.7016C41.7906 27.1386 40.4136 27.0582 29.9241 27.0582H18.0576L17.0451 25.8518C16.3971 25.0476 15.5061 24.5248 14.5341 24.4042C13.2381 24.1629 12.8736 24.3238 11.5371 25.6105ZM15.2226 28.0635C15.2226 28.9883 15.0201 29.31 14.3316 29.3904C13.7646 29.4709 13.2786 29.2296 13.0356 28.7068C12.3876 27.5005 12.9141 26.5756 14.1696 26.7365C15.0606 26.8169 15.2226 27.0582 15.2226 28.0635Z" fill="black"/>
</svg>
