<svg width="19" height="20" viewBox="0 0 19 20" fill="none" xmlns="http://www.w3.org/2000/svg">
<path d="M18.9564 1.26952L18.8356 0L17.6279 0.403023C15.558 1.12297 13.3477 1.3439 11.1765 1.04786C8.895 0.693412 6.55979 1.00838 4.45335 1.95466C3.33666 2.43068 2.35665 3.17876 1.60253 4.13079C0.848417 5.08282 0.344152 6.20857 0.135647 7.40554C-0.134708 8.95183 0.00054257 10.5419 0.528166 12.0202C0.8679 11.2525 1.2649 10.5115 1.71579 9.80353C2.73855 8.29707 4.15572 7.10144 5.81207 6.34761C7.40775 5.61826 9.15189 5.27319 10.9047 5.34005C9.23606 5.59546 7.63879 6.19595 6.21465 7.10327C5.52772 7.53536 4.89864 8.0534 4.34264 8.64484C3.81089 9.23599 3.34204 9.88095 2.94366 10.5693C2.19539 12.0081 1.66296 13.5494 1.36353 15.1436C1.04077 16.7429 0.865578 18.3686 0.840168 20H2.85308C2.94769 18.5369 3.14613 17.0823 3.44689 15.6474C4.84329 16.4022 6.40925 16.7872 7.99608 16.7657C9.47605 16.7647 10.9408 16.4667 12.3037 15.8892C19.9629 12.6146 18.9564 1.72292 18.9564 1.26952Z" fill="#1F3F2F"/>
</svg>
