<svg width="29" height="30" viewBox="0 0 29 30" fill="none" xmlns="http://www.w3.org/2000/svg">
<path d="M28.9335 1.90428L28.7491 0L26.9057 0.604534C23.7465 1.68445 20.3728 2.01584 17.0589 1.57179C13.5766 1.04012 10.0123 1.51257 6.79722 2.93199C5.0928 3.64601 3.59699 4.76813 2.44597 6.19618C1.29495 7.62424 0.525284 9.31286 0.207041 11.1083C-0.205607 13.4277 0.000828133 15.8128 0.806148 18.0302C1.32469 16.8787 1.93063 15.7673 2.61883 14.7053C4.17989 12.4456 6.34294 10.6522 8.87105 9.52141C11.3066 8.42739 13.9687 7.90979 16.6441 8.01007C14.0971 8.3932 11.6592 9.29393 9.48552 10.6549C8.43705 11.303 7.47687 12.0801 6.62824 12.9673C5.81663 13.854 5.10101 14.8214 4.49296 15.8539C3.35086 18.0121 2.53821 20.3241 2.08117 22.7154C1.58854 25.1144 1.32115 27.5528 1.28236 30H4.35471C4.4991 27.8053 4.80198 25.6235 5.26105 23.471C7.39238 24.6033 9.78254 25.1808 12.2045 25.1486C14.4635 25.1471 16.6991 24.7 18.7794 23.8338C30.4696 18.9219 28.9335 2.58438 28.9335 1.90428Z" fill="#1F3F2F"/>
</svg>
