<?xml version="1.0" encoding="UTF-8"?>
<svg xmlns="http://www.w3.org/2000/svg" width="24" height="24" version="1.1" viewBox="0 0 24 24">
  <defs>
    <style>
      .cls-1 {
        fill: #31241b;
      }
    </style>
  </defs>
  <!-- Generator: Adobe Illustrator 28.6.0, SVG Export Plug-In . SVG Version: 1.2.0 Build 709)  -->
  <g>
    <g id="Layer_1">
      <g>
        <path class="cls-1" d="M15.0001831,3.1352539v13.8647461c0,.5522461.4472656,1,1,1s1-.4477539,1-1V3.1352539l2.3592529,1.6328125c.4267578.3540039,1.0546265.2963867,1.4091187-.1279297.3535156-.4243164.2958984-1.0546875-.1279297-1.4082031L15.9995117.0001221l-.0003662-.0001221c-.1230469,0-4.6398315,3.2319336-4.6398315,3.2319336-.4238281.3535156-.4814453.9838867-.1279297,1.4082031.3544922.4243164.9835205.4819336,1.4093018.1279297l2.3594971-1.6328125Z"/>
        <path class="cls-1" d="M12.7684937,19.3598633c-.3544922-.4243164-.9832764-.4819336-1.4090576-.1279297l-2.3592529,1.6328125V7c0-.5522461-.4472656-1-1-1s-1,.4477539-1,1v13.8647461l-2.3594971-1.6328125c-.4267578-.3540039-1.0547485-.2963867-1.4092407.1279297-.3535156.4243164-.2958984,1.0546875.1279297,1.4082031l4.6411133,3.2318115.0003052.0001221c.1230469,0,4.6397705-3.2319336,4.6397705-3.2319336.4238281-.3535156.4814453-.9838867.1279297-1.4082031Z"/>
      </g>
    </g>
  </g>
</svg>